HIERARCHY
ROOT Hips
{
	OFFSET 0.000000 0.000000 0.000000 
	CHANNELS 6 Xposition Yposition Zposition Zrotation Yrotation Xrotation
	JOINT LeftUpLeg
	{
		OFFSET 1.363060 -1.794630 0.839290 
		CHANNELS 3 Zrotation Yrotation Xrotation
		JOINT LeftLeg
		{
			OFFSET 2.448110 -6.726130 0.000000 
			CHANNELS 3 Zrotation Yrotation Xrotation
			JOINT LeftFoot
			{
				OFFSET 2.562200 -7.039590 0.000000 
				CHANNELS 3 Zrotation Yrotation Xrotation
				JOINT LeftToeBase
				{
					OFFSET 0.157640 -0.433110 2.322550 
					CHANNELS 3 Zrotation Yrotation Xrotation
					End Site
					{
						OFFSET 0.000000 0.000000 0.000000 
					}
				}
			}
		}
	}
	JOINT RightUpLeg
	{
		OFFSET -1.305520 -1.794630 0.839290 
		CHANNELS 3 Zrotation Yrotation Xrotation
		JOINT RightLeg
		{
			OFFSET -2.542530 -6.985550 0.000000 
			CHANNELS 3 Zrotation Yrotation Xrotation
			JOINT RightFoot
			{
				OFFSET -2.568260 -7.056230 0.000000 
				CHANNELS 3 Zrotation Yrotation Xrotation
				JOINT RightToeBase
				{
					OFFSET -0.164730 -0.452590 2.363150 
					CHANNELS 3 Zrotation Yrotation Xrotation
					End Site
					{
						OFFSET 0.000000 0.000000 0.000000 
					}
				}
			}
		}
	}
	JOINT Spine
	{
		OFFSET 0.028270 2.035590 -0.193380 
		CHANNELS 3 Zrotation Yrotation Xrotation
		JOINT Spine1
		{
			OFFSET 0.056720 2.048850 -0.042750 
			CHANNELS 3 Zrotation Yrotation Xrotation
			JOINT Neck1
			{
				OFFSET -0.054170 1.746240 0.172020 
				CHANNELS 3 Zrotation Yrotation Xrotation
				JOINT Head
				{
					OFFSET 0.104070 1.761360 -0.123970 
					CHANNELS 3 Zrotation Yrotation Xrotation
					End Site
					{
						OFFSET 0.000000 0.000000 0.000000 
					}
				}
			}
			JOINT LeftArm
			{
				OFFSET 3.362410 1.200890 -0.311210 
				CHANNELS 3 Zrotation Yrotation Xrotation
				JOINT LeftForeArm
				{
					OFFSET 4.983000 -0.000000 -0.000000 
					CHANNELS 3 Zrotation Yrotation Xrotation
					JOINT LeftHand
					{
						OFFSET 3.483560 -0.000000 -0.000000 
						CHANNELS 3 Zrotation Yrotation Xrotation
						JOINT LeftHandIndex1
						{
							OFFSET 0.715260 -0.000000 -0.000000 
							CHANNELS 3 Zrotation Yrotation Xrotation
							End Site
							{
								OFFSET 0.000000 0.000000 0.000000 
							}
						}
					}
				}
			}
			JOINT RightArm
			{
				OFFSET -3.136600 1.374050 -0.404650 
				CHANNELS 3 Zrotation Yrotation Xrotation
				JOINT RightForeArm
				{
					OFFSET -5.241900 -0.000000 -0.000000 
					CHANNELS 3 Zrotation Yrotation Xrotation
					JOINT RightHand
					{
						OFFSET -3.444170 -0.000000 -0.000000 
						CHANNELS 3 Zrotation Yrotation Xrotation
						JOINT RightHandIndex1
						{
							OFFSET -0.622530 -0.000000 -0.000000 
							CHANNELS 3 Zrotation Yrotation Xrotation
							End Site
							{
								OFFSET 0.000000 0.000000 0.000000 
							}
						}
					}
				}
			}
		}
	}
}
MOTION
Frames: 16
Frame Time: 0.041667
-2.564146 18.134616 0.483635 -169.673418 61.003038 -144.780230 2.585772 -26.700255 -44.977666 -0.477895 8.075617 16.937210 -1.479116 12.884728 14.089175 2.309700 -9.483400 -27.319500 16.872557 6.514696 -34.917744 -0.475148 -7.163073 20.554346 7.659629 -25.818295 -4.019671 -0.633700 5.093400 -14.175100 -33.019129 7.499799 45.169666 1.719744 -0.311626 -18.085230 28.615030 -14.033116 -0.768046 9.820400 -5.876900 5.835800 -82.502713 -75.514341 70.386947 138.235267 -48.697936 -103.055794 0.166428 1.615724 -81.875767 -7.125000 0.000000 0.000000 -93.573001 47.650009 -123.195868 -11.153555 15.431155 -1.304176 0.443134 0.785460 83.211838 7.125000 0.000000 0.000000 
-2.573664 18.136064 0.486015 -169.584942 61.165941 -144.757219 2.594631 -26.702864 -44.872560 -0.477090 8.063467 16.897111 -1.552191 13.105016 13.981711 2.268100 -9.403500 -27.066000 16.813293 6.619299 -34.858428 -0.465253 -7.148160 20.519356 7.623688 -25.703805 -4.060231 -0.589600 4.916100 -13.669500 -33.018640 7.500557 45.169618 1.719238 -0.311034 -18.085619 28.615048 -14.033119 -0.767960 9.820400 -5.876900 5.835800 -82.502711 -75.514330 70.386956 138.235283 -48.697927 -103.055797 0.166425 1.615723 -81.875770 -7.125000 0.000000 0.000000 -93.573099 47.649921 -123.195895 -11.153594 15.431129 -1.304186 0.443119 0.785464 83.211829 7.125000 0.000000 0.000000 
-2.584216 18.135754 0.489429 -169.527366 61.319313 -144.732803 2.535600 -26.610036 -44.805381 -0.482495 8.041558 16.839769 -1.594411 13.222447 13.911036 2.213600 -9.297400 -26.730300 16.742015 6.736555 -34.853472 -0.463337 -7.147089 20.508732 7.614388 -25.680525 -4.048950 -0.580400 4.878300 -13.561700 -33.017800 7.501183 45.169884 1.718630 -0.310434 -18.086108 28.615002 -14.033128 -0.767857 9.820400 -5.876900 5.835800 -82.502732 -75.514325 70.386982 138.235308 -48.697921 -103.055800 0.166423 1.615722 -81.875773 -7.125000 0.000000 0.000000 -93.573215 47.649810 -123.195924 -11.153637 15.431104 -1.304197 0.443102 0.785468 83.211817 7.125000 0.000000 0.000000 
-2.593940 18.136685 0.492842 -169.590888 61.480811 -144.810607 2.392594 -26.515812 -44.752095 -0.490766 8.015962 16.780851 -1.615248 13.290007 13.908519 2.199900 -9.270500 -26.645300 16.607793 6.831070 -34.863119 -0.467862 -7.152107 20.509048 7.619603 -25.703480 -3.962964 -0.583100 4.889500 -13.593800 -33.016232 7.502217 45.170410 1.717510 -0.309331 -18.086995 28.615007 -14.033136 -0.767659 9.820400 -5.876900 5.835800 -82.502780 -75.514311 70.387040 138.235357 -48.697921 -103.055809 0.166416 1.615716 -81.875782 -7.125000 0.000000 0.000000 -93.573450 47.649623 -123.195986 -11.153727 15.431042 -1.304220 0.443067 0.785477 83.211795 7.125000 0.000000 0.000000 
-2.603251 18.137616 0.495946 -169.583761 61.650084 -144.837857 2.307426 -26.438225 -44.666389 -0.497910 7.987519 16.708594 -1.643325 13.404093 13.944042 2.207200 -9.285000 -26.691100 16.525350 6.900834 -34.874182 -0.475320 -7.161395 20.523241 7.611751 -25.693766 -3.823319 -0.593500 4.932200 -13.715400 -33.014944 7.503173 45.170803 1.716550 -0.308360 -18.087756 28.614994 -14.033146 -0.767494 9.820400 -5.876900 5.835800 -82.502806 -75.514299 70.387078 138.235395 -48.697914 -103.055815 0.166411 1.615713 -81.875788 -7.125000 0.000000 0.000000 -93.573642 47.649457 -123.196036 -11.153800 15.430994 -1.304239 0.443038 0.785484 83.211776 7.125000 0.000000 0.000000 
-2.611217 18.137823 0.499256 -169.571878 61.839274 -144.848510 2.210398 -26.334030 -44.580856 -0.509272 7.947893 16.609767 -1.658945 13.480159 14.000752 2.215400 -9.301100 -26.741800 16.410521 7.044590 -34.882998 -0.480261 -7.177571 20.564651 7.587251 -25.624039 -3.857123 -0.561200 4.798100 -13.333600 -33.013319 7.504001 45.171485 1.715494 -0.307455 -18.088590 28.614967 -14.033156 -0.767328 9.820400 -5.876900 5.835800 -82.502849 -75.514298 70.387130 138.235442 -48.697912 -103.055822 0.166406 1.615709 -81.875795 -7.125000 0.000000 0.000000 -93.573849 47.649284 -123.196088 -11.153880 15.430942 -1.304259 0.443008 0.785492 83.211756 7.125000 0.000000 0.000000 
-2.619182 18.137305 0.502774 -169.625618 62.042285 -144.898636 2.094692 -26.259436 -44.516158 -0.519364 7.912098 16.517555 -1.676764 13.587343 14.096977 2.268300 -9.403900 -27.067000 16.261686 7.179024 -34.921504 -0.488909 -7.196833 20.605152 7.579900 -25.611116 -3.825998 -0.561300 4.798800 -13.335600 -33.011128 7.504988 45.172468 1.714127 -0.306371 -18.089662 28.614946 -14.033168 -0.767124 9.820400 -5.876900 5.835800 -82.502909 -75.514305 70.387200 138.235504 -48.697911 -103.055833 0.166399 1.615703 -81.875805 -7.125000 0.000000 0.000000 -93.574114 47.649070 -123.196157 -11.153982 15.430873 -1.304285 0.442969 0.785501 83.211731 7.125000 0.000000 0.000000 
-2.627355 18.137616 0.506808 -169.784073 62.219405 -145.046073 1.921073 -26.193800 -44.465771 -0.528973 7.880556 16.441633 -1.701893 13.690078 14.130044 2.274500 -9.415800 -27.104900 16.107951 7.213185 -34.978112 -0.503316 -7.214980 20.636547 7.585796 -25.646023 -3.629614 -0.602300 4.968000 -13.817200 -33.008581 7.506236 45.173533 1.712477 -0.304984 -18.090945 28.614982 -14.033178 -0.766861 9.820400 -5.876900 5.835800 -82.502983 -75.514304 70.387288 138.235579 -48.697915 -103.055848 0.166388 1.615693 -81.875820 -7.125000 0.000000 0.000000 -93.574452 47.648818 -123.196246 -11.154113 15.430779 -1.304317 0.442920 0.785514 83.211699 7.125000 0.000000 0.000000 
-2.635942 18.136581 0.511981 -169.797833 62.380477 -145.066956 1.804649 -26.059667 -44.432914 -0.537962 7.853582 16.377245 -1.721869 13.741522 14.101067 2.268900 -9.405000 -27.070600 16.031834 7.272136 -35.030734 -0.511297 -7.231528 20.674709 7.564931 -25.594259 -3.566344 -0.613600 5.013300 -13.946400 -33.007062 7.506944 45.174206 1.711524 -0.304198 -18.091703 28.614940 -14.033189 -0.766713 9.820400 -5.876900 5.835800 -82.503027 -75.514305 70.387338 138.235622 -48.697914 -103.055854 0.166384 1.615689 -81.875826 -7.125000 0.000000 0.000000 -93.574637 47.648663 -123.196293 -11.154184 15.430734 -1.304335 0.442893 0.785520 83.211681 7.125000 0.000000 0.000000 
-2.643287 18.137926 0.518395 -169.742159 62.574634 -145.045307 1.735249 -25.941967 -44.348432 -0.544027 7.828131 16.312722 -1.765874 13.867846 14.044135 2.215600 -9.301300 -26.742500 15.956060 7.398311 -35.047364 -0.512779 -7.245337 20.715019 7.521873 -25.465191 -3.639283 -0.575900 4.859500 -13.508300 -33.005579 7.507506 45.174929 1.710650 -0.303611 -18.092380 28.614914 -14.033197 -0.766601 9.820400 -5.876900 5.835800 -82.503059 -75.514317 70.387379 138.235662 -48.697912 -103.055860 0.166379 1.615686 -81.875832 -7.125000 0.000000 0.000000 -93.574795 47.648534 -123.196333 -11.154246 15.430694 -1.304350 0.442870 0.785525 83.211666 7.125000 0.000000 0.000000 
-2.650218 18.138857 0.523361 -169.766263 62.765404 -145.093169 1.597157 -25.819261 -44.283892 -0.551202 7.807080 16.271266 -1.761785 13.872549 14.111961 2.265900 -9.399200 -27.052300 15.852171 7.477941 -35.066080 -0.516689 -7.254707 20.738497 7.489882 -25.373198 -3.606073 -0.556600 4.778900 -13.279000 -33.003990 7.508449 45.175514 1.709552 -0.302617 -18.093237 28.614924 -14.033205 -0.766424 9.820400 -5.876900 5.835800 -82.503097 -75.514309 70.387429 138.235709 -48.697910 -103.055868 0.166373 1.615681 -81.875840 -7.125000 0.000000 0.000000 -93.575017 47.648360 -123.196391 -11.154331 15.430636 -1.304371 0.442837 0.785533 83.211645 7.125000 0.000000 0.000000 
-2.657666 18.137202 0.526257 -169.737509 62.913834 -145.097923 1.573681 -25.796000 -44.230609 -0.552622 7.794049 16.231129 -1.803621 14.020356 14.099170 2.296700 -9.458600 -27.240700 15.792583 7.541549 -35.088580 -0.526173 -7.269313 20.766909 7.481857 -25.366472 -3.471891 -0.570000 4.835000 -13.438700 -33.002895 7.509091 45.175940 1.708808 -0.301966 -18.093819 28.614910 -14.033213 -0.766314 9.820400 -5.876900 5.835800 -82.503112 -75.514311 70.387455 138.235739 -48.697902 -103.055873 0.166370 1.615678 -81.875844 -7.125000 0.000000 0.000000 -93.575155 47.648237 -123.196427 -11.154385 15.430602 -1.304385 0.442817 0.785538 83.211632 7.125000 0.000000 0.000000 
-2.665011 18.136995 0.529981 -169.720730 63.071947 -145.162353 1.492715 -25.745677 -44.123493 -0.554332 7.779282 16.196357 -1.851986 14.173057 14.064339 2.296200 -9.457600 -27.237400 15.704022 7.630697 -35.066242 -0.535232 -7.289947 20.828649 7.447033 -25.264785 -3.475130 -0.546300 4.735400 -13.155400 -33.001363 7.509783 45.176595 1.707810 -0.301196 -18.094567 28.614997 -14.033214 -0.766175 9.820400 -5.876900 5.835800 -82.503137 -75.514315 70.387496 138.235781 -48.697901 -103.055882 0.166363 1.615672 -81.875853 -7.125000 0.000000 0.000000 -93.575356 47.648103 -123.196482 -11.154465 15.430540 -1.304403 0.442789 0.785545 83.211613 7.125000 0.000000 0.000000 
-2.673287 18.135547 0.537120 -169.817468 63.255428 -145.312293 1.419095 -25.782030 -44.034887 -0.552866 7.772339 16.178041 -1.907224 14.360272 14.036106 2.307500 -9.479100 -27.305900 15.587155 7.657914 -35.093589 -0.547083 -7.311665 20.888415 7.410541 -25.161241 -3.398705 -0.540900 4.712000 -13.088900 -32.998822 7.510813 45.177742 1.706231 -0.300104 -18.095741 28.615134 -14.033214 -0.765966 9.820400 -5.876900 5.835800 -82.503191 -75.514332 70.387571 138.235851 -48.697905 -103.055898 0.166352 1.615661 -81.875869 -7.125000 0.000000 0.000000 -93.575669 47.647903 -123.196569 -11.154591 15.430443 -1.304432 0.442745 0.785558 83.211584 7.125000 0.000000 0.000000 
-2.681770 18.132547 0.544465 -169.856546 63.408321 -145.326800 1.420467 -25.799662 -44.070991 -0.548967 7.779563 16.182188 -1.956086 14.519440 13.973742 2.304000 -9.472500 -27.284900 15.531986 7.670820 -35.219702 -0.561991 -7.339028 20.947712 7.377196 -25.087100 -3.211287 -0.564400 4.811800 -13.372700 -32.996941 7.511269 45.178796 1.705248 -0.299656 -18.096489 28.615094 -14.033224 -0.765871 9.820400 -5.876900 5.835800 -82.503230 -75.514366 70.387619 138.235898 -48.697903 -103.055906 0.166348 1.615656 -81.875876 -7.125000 0.000000 0.000000 -93.575832 47.647773 -123.196610 -11.154657 15.430402 -1.304448 0.442721 0.785562 83.211569 7.125000 0.000000 0.000000 
-2.689426 18.129650 0.550982 -169.736014 63.466326 -145.193486 1.546173 -25.821689 -44.150537 -0.539689 7.802762 16.216071 -2.007826 14.674220 13.867170 2.285500 -9.437000 -27.172000 15.591807 7.684230 -35.330793 -0.571012 -7.363990 21.010354 7.338337 -24.989288 -3.154170 -0.557600 4.783300 -13.291500 -32.996821 7.510853 45.179141 1.705423 -0.300178 -18.096353 28.614974 -14.033231 -0.765961 9.820400 -5.876900 5.835800 -82.503216 -75.514403 70.387602 138.235892 -48.697894 -103.055901 0.166351 1.615659 -81.875872 -7.125000 0.000000 0.000000 -93.575749 47.647808 -123.196584 -11.154625 15.430436 -1.304440 0.442732 0.785557 83.211577 7.125000 0.000000 0.000000 
